<svg clip-rule="evenodd" fill-rule="evenodd" height="360" stroke-linejoin="round" stroke-miterlimit="2" viewBox="42.511 51.186 624.668 134.955" width="2500" xmlns="http://www.w3.org/2000/svg"><g fill="#c4151c"><path d="m617.669 85.064h47.912v13.785h-9.181v69.055h9.979v15.918h-48.749v-15.802h8.92v-68.849h-8.914zm23.56-33.878c15.736 0 24.74 4.44 25.345 8.88.605 4.441-7.189 8.881-25.047 8.881-34.261 0-30.366-17.761-.298-17.761zm-118.95 34.829h36.866v15.023h.994l19.014-12.857c12.811-8.663 28.014 2.382 28.014 11.295v39.42h-27.92v-34.319c0-1.581-2.692-3.257-5.247-.403-.892.997-11.106 10.893-14.099 13.886-.89.89-.848.955-.848 2.213v48.691h9.966v15.824h-45.88v-15.849h9.092v-68.007h-10.011z"/><path d="m451.156 84.918c-16.864 0-26.904 8.9-26.904 30.853h28.501c0-5.846.11-10.354.11-13.719 0-3.366 3.463-4.193 5.084-4.193 3.327 0 11.638.188 12.978.188 3.487 0 4.615 4.65 4.615 7.306l-.06 21.553-29.003.056c-13.797 0-20.971 7.453-20.971 15.821 0 1.94-.29 14.635-.29 23.389 0 16.951 17.568 19.68 19.613 19.68 6.712 0 65.606.057 65.606.057l-.017-17.918-6.985.004.03-61.86c0-10.338-11.235-21.205-23.366-21.205-11.339 0-19.536-.012-28.941-.012zm24.211 79.665c0 .488.021 7.824.021 8.312 0 .008-14.932.002-16.461.002-3.6 0-6.471-1.806-6.471-5.406 0-6.637-.004-20.499-.004-21.789 0-5.166.964-9.53 8.135-9.53l14.944.006z" fill-rule="nonzero"/><path d="m329.608 86.015h36.867v15.023h.993l19.014-12.857c12.811-8.663 28.015 2.382 28.015 11.295v39.42h-27.921v-34.319c0-1.581-2.692-3.257-5.247-.403-.892.997-11.106 10.893-14.099 13.886-.89.89-.848.955-.848 2.213v48.691h9.966v15.824h-45.88v-15.849h9.092v-68.007h-10.01zm-97.917 0h36.866v15.023h.994l19.014-12.857c12.811-8.663 28.014 2.382 28.014 11.295v39.42h-27.92v-34.319c0-1.581-2.692-3.257-5.247-.403-.893.997-11.106 10.893-14.099 13.886-.89.89-.848.955-.848 2.213v48.691h9.966v15.824h-45.88v-15.849h9.092v-68.007h-10.011z"/><path d="m190.162 154.2c0 11.279.762 18.625-7.656 18.625-1.594 0-11.189.071-12.585.071s-7.254-.383-7.254-6.397l.217-23.55h54.656v-38.964c0-10.091-11.638-18.005-22.882-18.005s-37.199.166-39.165.166c-7.655 0-21.082 4.702-21.082 17.99v57.348c0 22.867 17.989 24.657 27.816 24.657s24.568-.253 33.617-.253c11.428 0 22.644-10.871 22.644-19.344 0-4.165-.137-8.179-.137-12.344zm-20.578-55.56c.749 0 13.171.083 13.69.083 2.659 0 6.069 1.525 6.069 6.471l-.169 27.629-26.096-.074.033-27.89c-.156-5.578 5.723-6.219 6.473-6.219z" fill-rule="nonzero"/><path d="m45.164 52.056h561.455v16.998h-516.213v40.737h11.087v-9.294h13.933v34.375h-12.913v-7.92h-12.086v41.598h18.932v17.354h-66.848v-17.384h19.884v-98.572h-17.246z"/></g></svg>