<svg width="177" height="26" viewBox="0 0 177 26" fill="none" xmlns="http://www.w3.org/2000/svg">
<path d="M24.8364 19.3564V10.9346H21.3309C19.1564 10.9346 17.9127 11.8109 16.6109 12.8291L0 25.9964H7.48727L18.5055 17.0655V25.9964H23.6764L34.3564 17.0109V25.9964H40.6836V10.9346H37.2364C35.3709 10.9346 34.0727 11.6982 32.7709 12.7709L24.8327 19.3564H24.8364ZM63.6327 10.9346V25.9964H77.1382V22.4655H69.8473V10.9346H63.6291H63.6327ZM42.44 20.2328C42.44 24.3309 44.5309 25.9964 49.9273 25.9964H61.7673V22.4909H50.8327C49.5345 22.4909 48.6582 21.8982 48.6582 20.0328V18.9018C48.6582 17.2364 49.4764 16.5273 50.8036 16.5273H61.7673V12.9964H49.7564C44.4436 12.9964 42.44 15.2291 42.44 18.7891V20.2291V20.2328ZM79.6254 13V16.4182H91.2945C92.4545 16.4182 92.8473 16.8146 92.8473 17.6618V18.1709H83.4654C79.5382 18.1709 78.3527 19.7819 78.3527 21.8437V22.3528C78.3527 25.2073 80.64 25.9964 85.1345 25.9964H92.0291C96.9163 25.9964 99.0363 24.8946 99.0363 21.0509V18.0291C99.0363 14.7782 97.0291 13 92.48 13H79.6218H79.6254ZM100.873 25.9964H107.091V17.4618C107.091 16.8982 107.316 16.5309 108.08 16.5309H112.913V13H105.989C102.287 13 100.876 14.3855 100.876 16.7018V26L100.873 25.9964ZM120.851 13C115.851 13 113.844 14.6655 113.844 18.4255V20.9964C113.844 24.2473 115.851 25.9964 120.371 25.9964H133.538V22.5782H121.615C120.429 22.5782 120.033 22.24 120.033 21.3637V20.8255H129.444C132.695 20.8255 134.531 19.8073 134.531 17.3782V16.7855C134.531 14.5818 133.429 13 127.92 13H120.855H120.851ZM136.164 13V25.9964H142.382V16.5309H147.469C149.193 16.5309 150.069 17.0691 150.069 18.7346V25.9964H156.284V18.2255C156.284 14.5782 154.276 12.9964 148.596 12.9964H136.164V13ZM120 18.4546V17.6364C120 16.9018 120.309 16.4218 121.298 16.4218H127.458C128.305 16.4218 128.731 16.6764 128.731 17.4691C128.731 18.1455 128.393 18.4582 127.516 18.4582H120V18.4546ZM92.8473 21.3637C92.8473 22.0691 92.5382 22.5782 91.5745 22.5782H85.4145C84.6218 22.5782 84.1709 22.3528 84.1709 21.6182C84.1709 20.8837 84.48 20.5164 85.4145 20.5164H92.8473V21.3637Z" fill="#FF8000"/>
<path d="M171.24 0C167.771 0 162.88 1.03636 157.582 2.97455C153.164 4.5891 148.789 6.64728 144.058 9.63274C146.825 8.50183 152.284 7.22546 156.785 7.22546C162.862 7.22546 167.193 9.55274 160.8 17.7091C179.651 5.37091 179.127 0 171.24 0Z" fill="#FF8000"/>
</svg>
